<mxfile host="app.diagrams.net" modified="2024-02-23T18:05:04.165Z" agent="Mozilla/5.0 (X11; Linux x86_64; rv:109.0) Gecko/20100101 Firefox/114.0" etag="ChwWnY58Lb8uiUjf3Hqw" version="23.1.5" type="device">
  <diagram name="PÃ¡gina-1" id="8xEh2DotrRzkSoEgIvrA">
    <mxGraphModel dx="1912" dy="1052" grid="1" gridSize="10" guides="1" tooltips="1" connect="1" arrows="1" fold="1" page="1" pageScale="1" pageWidth="827" pageHeight="1169" math="0" shadow="0">
      <root>
        <mxCell id="0" />
        <mxCell id="1" parent="0" />
        <mxCell id="jcnxsxLn8ZAkjg4gxXtT-9" style="edgeStyle=orthogonalEdgeStyle;rounded=0;orthogonalLoop=1;jettySize=auto;html=1;exitX=0.5;exitY=1;exitDx=0;exitDy=0;" edge="1" parent="1" source="jcnxsxLn8ZAkjg4gxXtT-1" target="jcnxsxLn8ZAkjg4gxXtT-2">
          <mxGeometry relative="1" as="geometry" />
        </mxCell>
        <mxCell id="jcnxsxLn8ZAkjg4gxXtT-1" value="&lt;div&gt;1&lt;/div&gt;" style="ellipse;whiteSpace=wrap;html=1;aspect=fixed;" vertex="1" parent="1">
          <mxGeometry x="480" y="150" width="80" height="80" as="geometry" />
        </mxCell>
        <mxCell id="jcnxsxLn8ZAkjg4gxXtT-50" style="rounded=0;orthogonalLoop=1;jettySize=auto;html=1;exitX=0.5;exitY=1;exitDx=0;exitDy=0;" edge="1" parent="1" source="jcnxsxLn8ZAkjg4gxXtT-2" target="jcnxsxLn8ZAkjg4gxXtT-5">
          <mxGeometry relative="1" as="geometry" />
        </mxCell>
        <mxCell id="jcnxsxLn8ZAkjg4gxXtT-2" value="2" style="ellipse;whiteSpace=wrap;html=1;aspect=fixed;" vertex="1" parent="1">
          <mxGeometry x="480" y="300" width="80" height="80" as="geometry" />
        </mxCell>
        <mxCell id="jcnxsxLn8ZAkjg4gxXtT-11" style="rounded=0;orthogonalLoop=1;jettySize=auto;html=1;exitX=0;exitY=1;exitDx=0;exitDy=0;entryX=1;entryY=0;entryDx=0;entryDy=0;" edge="1" parent="1" source="jcnxsxLn8ZAkjg4gxXtT-3" target="jcnxsxLn8ZAkjg4gxXtT-4">
          <mxGeometry relative="1" as="geometry" />
        </mxCell>
        <mxCell id="jcnxsxLn8ZAkjg4gxXtT-49" style="rounded=0;orthogonalLoop=1;jettySize=auto;html=1;exitX=1;exitY=1;exitDx=0;exitDy=0;entryX=0;entryY=0;entryDx=0;entryDy=0;" edge="1" parent="1" source="jcnxsxLn8ZAkjg4gxXtT-3" target="jcnxsxLn8ZAkjg4gxXtT-5">
          <mxGeometry relative="1" as="geometry" />
        </mxCell>
        <mxCell id="jcnxsxLn8ZAkjg4gxXtT-3" value="3" style="ellipse;whiteSpace=wrap;html=1;aspect=fixed;" vertex="1" parent="1">
          <mxGeometry x="330" y="400" width="80" height="80" as="geometry" />
        </mxCell>
        <mxCell id="jcnxsxLn8ZAkjg4gxXtT-42" style="rounded=0;orthogonalLoop=1;jettySize=auto;html=1;exitX=0;exitY=1;exitDx=0;exitDy=0;entryX=0.5;entryY=0;entryDx=0;entryDy=0;" edge="1" parent="1" source="jcnxsxLn8ZAkjg4gxXtT-4" target="jcnxsxLn8ZAkjg4gxXtT-6">
          <mxGeometry relative="1" as="geometry" />
        </mxCell>
        <mxCell id="jcnxsxLn8ZAkjg4gxXtT-48" style="rounded=0;orthogonalLoop=1;jettySize=auto;html=1;entryX=0;entryY=0.5;entryDx=0;entryDy=0;" edge="1" parent="1" source="jcnxsxLn8ZAkjg4gxXtT-4" target="jcnxsxLn8ZAkjg4gxXtT-5">
          <mxGeometry relative="1" as="geometry" />
        </mxCell>
        <mxCell id="jcnxsxLn8ZAkjg4gxXtT-4" value="4" style="ellipse;whiteSpace=wrap;html=1;aspect=fixed;" vertex="1" parent="1">
          <mxGeometry x="230" y="500" width="80" height="80" as="geometry" />
        </mxCell>
        <mxCell id="jcnxsxLn8ZAkjg4gxXtT-47" style="rounded=0;orthogonalLoop=1;jettySize=auto;html=1;exitX=0;exitY=1;exitDx=0;exitDy=0;entryX=0.5;entryY=0;entryDx=0;entryDy=0;" edge="1" parent="1" source="jcnxsxLn8ZAkjg4gxXtT-5" target="jcnxsxLn8ZAkjg4gxXtT-7">
          <mxGeometry relative="1" as="geometry" />
        </mxCell>
        <mxCell id="jcnxsxLn8ZAkjg4gxXtT-51" style="rounded=0;orthogonalLoop=1;jettySize=auto;html=1;exitX=1;exitY=1;exitDx=0;exitDy=0;entryX=1;entryY=0.5;entryDx=0;entryDy=0;" edge="1" parent="1" source="jcnxsxLn8ZAkjg4gxXtT-5" target="jcnxsxLn8ZAkjg4gxXtT-19">
          <mxGeometry relative="1" as="geometry" />
        </mxCell>
        <mxCell id="jcnxsxLn8ZAkjg4gxXtT-5" value="5" style="ellipse;whiteSpace=wrap;html=1;aspect=fixed;" vertex="1" parent="1">
          <mxGeometry x="524" y="530" width="80" height="80" as="geometry" />
        </mxCell>
        <mxCell id="jcnxsxLn8ZAkjg4gxXtT-43" style="rounded=0;orthogonalLoop=1;jettySize=auto;html=1;exitX=0.5;exitY=1;exitDx=0;exitDy=0;entryX=0.5;entryY=0;entryDx=0;entryDy=0;" edge="1" parent="1" source="jcnxsxLn8ZAkjg4gxXtT-6" target="jcnxsxLn8ZAkjg4gxXtT-18">
          <mxGeometry relative="1" as="geometry" />
        </mxCell>
        <mxCell id="jcnxsxLn8ZAkjg4gxXtT-45" style="rounded=0;orthogonalLoop=1;jettySize=auto;html=1;exitX=1;exitY=0.5;exitDx=0;exitDy=0;" edge="1" parent="1" source="jcnxsxLn8ZAkjg4gxXtT-6" target="jcnxsxLn8ZAkjg4gxXtT-7">
          <mxGeometry relative="1" as="geometry" />
        </mxCell>
        <mxCell id="jcnxsxLn8ZAkjg4gxXtT-6" value="6" style="ellipse;whiteSpace=wrap;html=1;aspect=fixed;" vertex="1" parent="1">
          <mxGeometry x="180" y="630" width="80" height="80" as="geometry" />
        </mxCell>
        <mxCell id="jcnxsxLn8ZAkjg4gxXtT-46" style="rounded=0;orthogonalLoop=1;jettySize=auto;html=1;exitX=1;exitY=0.5;exitDx=0;exitDy=0;" edge="1" parent="1" source="jcnxsxLn8ZAkjg4gxXtT-7" target="jcnxsxLn8ZAkjg4gxXtT-8">
          <mxGeometry relative="1" as="geometry" />
        </mxCell>
        <mxCell id="jcnxsxLn8ZAkjg4gxXtT-7" value="7" style="ellipse;whiteSpace=wrap;html=1;aspect=fixed;" vertex="1" parent="1">
          <mxGeometry x="315.5" y="680" width="80" height="80" as="geometry" />
        </mxCell>
        <mxCell id="jcnxsxLn8ZAkjg4gxXtT-8" value="8" style="ellipse;whiteSpace=wrap;html=1;aspect=fixed;" vertex="1" parent="1">
          <mxGeometry x="430" y="740" width="80" height="80" as="geometry" />
        </mxCell>
        <mxCell id="jcnxsxLn8ZAkjg4gxXtT-10" style="rounded=0;orthogonalLoop=1;jettySize=auto;html=1;exitX=0;exitY=1;exitDx=0;exitDy=0;entryX=0.988;entryY=0.275;entryDx=0;entryDy=0;entryPerimeter=0;" edge="1" parent="1" source="jcnxsxLn8ZAkjg4gxXtT-2" target="jcnxsxLn8ZAkjg4gxXtT-3">
          <mxGeometry relative="1" as="geometry" />
        </mxCell>
        <mxCell id="jcnxsxLn8ZAkjg4gxXtT-44" style="rounded=0;orthogonalLoop=1;jettySize=auto;html=1;exitX=0.5;exitY=1;exitDx=0;exitDy=0;entryX=0;entryY=0.5;entryDx=0;entryDy=0;" edge="1" parent="1" source="jcnxsxLn8ZAkjg4gxXtT-18" target="jcnxsxLn8ZAkjg4gxXtT-19">
          <mxGeometry relative="1" as="geometry" />
        </mxCell>
        <mxCell id="jcnxsxLn8ZAkjg4gxXtT-18" value="9" style="ellipse;whiteSpace=wrap;html=1;aspect=fixed;" vertex="1" parent="1">
          <mxGeometry x="170" y="760" width="80" height="80" as="geometry" />
        </mxCell>
        <mxCell id="jcnxsxLn8ZAkjg4gxXtT-19" value="10" style="ellipse;whiteSpace=wrap;html=1;aspect=fixed;" vertex="1" parent="1">
          <mxGeometry x="470" y="930" width="80" height="80" as="geometry" />
        </mxCell>
        <mxCell id="jcnxsxLn8ZAkjg4gxXtT-27" value="&lt;font style=&quot;font-size: 34px;&quot;&gt;Pruebas caja blanca&lt;/font&gt;" style="rounded=1;whiteSpace=wrap;html=1;" vertex="1" parent="1">
          <mxGeometry x="240" y="60" width="400" height="60" as="geometry" />
        </mxCell>
        <mxCell id="jcnxsxLn8ZAkjg4gxXtT-40" value="&lt;div style=&quot;font-size: 17px;&quot; align=&quot;left&quot;&gt;&lt;font style=&quot;font-size: 17px;&quot;&gt;14 conexiones&lt;/font&gt;&lt;/div&gt;&lt;div style=&quot;font-size: 17px;&quot; align=&quot;left&quot;&gt;&lt;font style=&quot;font-size: 17px;&quot;&gt;10 Nodos&lt;/font&gt;&lt;/div&gt;&lt;div style=&quot;font-size: 17px;&quot; align=&quot;left&quot;&gt;&lt;font style=&quot;font-size: 17px;&quot;&gt;&lt;font style=&quot;font-size: 17px;&quot;&gt;(14-10)+2=6 caminos posibles&lt;/font&gt;&lt;/font&gt;&lt;/div&gt;" style="text;html=1;align=left;verticalAlign=middle;whiteSpace=wrap;rounded=0;" vertex="1" parent="1">
          <mxGeometry x="81" y="1030" width="249" height="70" as="geometry" />
        </mxCell>
        <mxCell id="jcnxsxLn8ZAkjg4gxXtT-52" style="rounded=0;orthogonalLoop=1;jettySize=auto;html=1;exitX=0.5;exitY=1;exitDx=0;exitDy=0;entryX=0.317;entryY=0.042;entryDx=0;entryDy=0;entryPerimeter=0;" edge="1" parent="1" source="jcnxsxLn8ZAkjg4gxXtT-8" target="jcnxsxLn8ZAkjg4gxXtT-19">
          <mxGeometry relative="1" as="geometry" />
        </mxCell>
      </root>
    </mxGraphModel>
  </diagram>
</mxfile>
